# xmcd
# Track frame offsets:
# 150
# 18330
# 39882
# 58705
# 81122
# 97282
# 113692
# 135257
# 150537
# 166517
#
# Disc length: 2530 seconds
# Revision: 0
# Processed by: cddbd v1.4PL0 Copyright (c) Steve Scherf et al.
# Submitted via: VisiTrax 2.9.5.181 - For more info visit www.synapsa.com
#
DISCID=6a09e00a
DTITLE=O.B. Buchana - It's Over
DYEAR=1999
DGENRE=
TTITLE0=It's Over
TTITLE1=Back Door Tipper
TTITLE2=Been Lied On
TTITLE3=Love Hurts
TTITLE4=Back Up Lover
TTITLE5=Keep On Walking
TTITLE6=Two Steps Behind
TTITLE7=Bedroom Eyes
TTITLE8=Don't Quit Me
TTITLE9=Don't Quit Me (Instrumental)
EXTD=Blues River Records\nSQCD - 9102-2
EXTT0=
EXTT1=
EXTT2=
EXTT3=
EXTT4=
EXTT5=
EXTT6=
EXTT7=
EXTT8=
EXTT9=
PLAYORDER=
